<svg id="Layer_1" data-name="Layer 1" xmlns="http://www.w3.org/2000/svg" viewBox="0 0 500 400"><defs><style>.cls-1{fill:none;stroke:#231f20;stroke-linecap:round;stroke-miterlimit:10;stroke-width:9.24px;}.cls-2{fill:#a5c0e0;}</style></defs><title>Benefits of super icons 500x400_0618_FV</title><path class="cls-1" d="M251.6,39.6l44,89.05a26.74,26.74,0,0,0,20.14,14.63L414,157.56a3.67,3.67,0,0,1,2,6.27l-71.1,69.31a26.75,26.75,0,0,0-7.69,23.69L354,354.69a3.68,3.68,0,0,1-5.34,3.88l-87.89-46.21a26.8,26.8,0,0,0-24.9,0L148,358.57a3.67,3.67,0,0,1-5.33-3.88l16.78-97.86a26.78,26.78,0,0,0-7.69-23.69L80.61,163.83a3.68,3.68,0,0,1,2-6.27l98.27-14.28a26.75,26.75,0,0,0,20.14-14.63L245,39.6A3.68,3.68,0,0,1,251.6,39.6Z"/><path class="cls-1" d="M342.9,193l-24.79,25.76a40.29,40.29,0,0,0-10.9,33.27l5.59,41.71"/><path class="cls-2" d="M162.86,332.45l25.74-59c19.87-45.58-16.79-72.5-36.82-90.3l36.58-2.8c24.25-3.54,40.11-20.45,44.95-42.5l15-68.33-32.73,66.32a42.9,42.9,0,0,1-32.32,23.49l-73.19,10.63,53,51.63a42.92,42.92,0,0,1,12.35,38Z"/></svg>