<svg id="Layer_1" data-name="Layer 1" xmlns="http://www.w3.org/2000/svg" viewBox="0 0 500 400"><defs><style>.cls-1{fill:#a5c0e0;}.cls-2{fill:none;stroke:#231f20;stroke-linecap:round;stroke-miterlimit:10;stroke-width:9.24px;}</style></defs><title>Benefits of super icons 500x400_0618_FV</title><path class="cls-1" d="M214.92,89.71a10.66,10.66,0,1,0-10.66,10.66A10.66,10.66,0,0,0,214.92,89.71Z"/><line class="cls-2" x1="92.55" y1="347.11" x2="410.22" y2="347.11"/><rect class="cls-1" x="92.55" y="205.98" width="34.91" height="111.49"/><rect class="cls-1" x="375.31" y="148.11" width="34.91" height="169.36"/><rect class="cls-1" x="186.8" y="145.99" width="34.91" height="171.48"/><circle class="cls-2" cx="204.26" cy="89.71" r="24.73" transform="translate(43.54 244.43) rotate(-67.62)"/><path class="cls-1" d="M403.43,91.84a10.66,10.66,0,1,0-10.66,10.66A10.66,10.66,0,0,0,403.43,91.84Z"/><circle class="cls-2" cx="392.77" cy="91.84" r="24.73" transform="translate(-9.63 63.93) rotate(-9.19)"/><rect class="cls-1" x="281.06" y="199.61" width="34.91" height="117.86"/><circle class="cls-2" cx="298.51" cy="143.33" r="14.87"/><path class="cls-2" d="M124.87,149.7A14.87,14.87,0,1,0,110,164.57,14.86,14.86,0,0,0,124.87,149.7Z"/><line class="cls-2" x1="121.14" y1="139.88" x2="183" y2="102.31"/><line class="cls-2" x1="227.05" y1="99.32" x2="283.65" y2="134.84"/><line class="cls-2" x1="311.6" y1="136.27" x2="370.48" y2="102.5"/></svg>