<svg id="Layer_1" data-name="Layer 1" xmlns="http://www.w3.org/2000/svg" viewBox="0 0 500 400"><defs><style>.cls-1{fill:#a5c0e0;}.cls-2{fill:none;stroke:#231f20;stroke-linecap:round;stroke-miterlimit:10;stroke-width:9.24px;}</style></defs><title>Benefits of super icons 500x400_0618_FV</title><path class="cls-1" d="M192.66,106.75a25.32,25.32,0,1,1,47.75,11.73,136.08,136.08,0,0,1,17,2.44,42,42,0,1,0-75.81,6.73,118.44,118.44,0,0,1,16.28-5.51A25.18,25.18,0,0,1,192.66,106.75Z"/><path class="cls-2" d="M165.43,111.29c-41.62,12.41-80.8,51.53-80.8,92.76,0,18.13,2.43,33.67,10.34,46.19,8.72,13.8,14.42,29.31,17.75,45.29,1.78,8.55.4,18.25,3.9,28.26a22.39,22.39,0,0,0,21.12,15.06h15.41A15.38,15.38,0,0,0,168,319.16c-4.16-14-4.55-34.07-3.7-55.9"/><path class="cls-2" d="M325.8,305.32c111.31-19.5,121.66-74.06,122.69-90.88.26-4.32-3.09-10.39-11.92-10.39h-4c-13.88-44.54-63.84-67.12-63.84-67.12,1.28-12.53,10.24-27.4,15.71-35.46a3.37,3.37,0,0,0-3.2-5.23c-20.78,2.56-37.36,7.36-51.05,18.42-14.28-6.3-38.9-15.28-60.15-16.34"/><path class="cls-2" d="M164.81,301.9C195,312.61,237.12,312.51,238,312.49q12.84-.11,24.65-.64a15.27,15.27,0,0,1,15.2,10.51c.65,2,1.39,4.14,2.21,6.35a15.58,15.58,0,0,0,14.63,10.14h19.78a15.62,15.62,0,0,0,14.91-20.24c-2.21-7.2-7.22-37.25-6.3-56.94"/><path class="cls-2" d="M389.78,183.82a4.76,4.76,0,1,0-4.76,4.76A4.76,4.76,0,0,0,389.78,183.82Z"/><path class="cls-2" d="M157.91,140.62s51.41-33.44,124.75-11.9"/><path class="cls-2" d="M267.88,124.08A52.74,52.74,0,1,0,172,132.8"/><path class="cls-2" d="M330.15,114.66a79.84,79.84,0,0,0-14.45,17.23"/><path class="cls-2" d="M84.84,195a20.93,20.93,0,0,1-29.48,2.48c-7.06-6-8.3-16.09-2.34-23.15C57.79,168.69,65.49,168,71,173c4,3.62,4.06,10.06.84,13.48"/><path class="cls-2" d="M441.07,241.42s-18,16.55-36.75,2.37"/></svg>