<?xml version="1.0" encoding="utf-8"?>
<!-- Generator: Adobe Illustrator 16.0.0, SVG Export Plug-In . SVG Version: 6.00 Build 0)  -->
<!DOCTYPE svg PUBLIC "-//W3C//DTD SVG 1.1//EN" "http://www.w3.org/Graphics/SVG/1.1/DTD/svg11.dtd">
<svg version="1.1" id="Layer_1" xmlns="http://www.w3.org/2000/svg" xmlns:xlink="http://www.w3.org/1999/xlink" x="0px" y="0px"
	 width="221.068px" height="65px" viewBox="0 0 221.068 65" enable-background="new 0 0 221.068 65" xml:space="preserve">
<g>
	<path fill="#013A81" d="M61.061,18.515c-0.57-0.138-1.123-0.172-1.533-0.45c-1.92-1.3-1.364-3.577-2.92-4.519
		c-1.845-1.114-3.8,0.141-5.141-0.575c-1.67-0.9-1.93-3.19-4.21-3.94c-3.34-1.1-3.79,0.84-6.42,0.57
		c-2.81-0.29-4.027-2.49-6.157-2.49H34.66c-2.14,0-3.36,2.2-6.16,2.49c-2.64,0.27-3.09-1.681-6.43-0.58
		c-2.28,0.75-2.54,3.05-4.21,3.939c-1.34,0.71-3.3-0.54-5.141,0.57c-1.56,0.94-1.02,3.4-2.92,4.51c0,0-0.39,0.271-1.59,0.462
		c-1.2,0.19-3.64,1.394-3.55,7.19c0.09,5.8,4.32,14.188,15.23,23.436c0.899,0.604,9.02,8.034,14.76,8.034
		c6.859,0,14.81-8.062,14.81-8.062c10.9-9.25,15-17.63,15.101-23.43c0.09-5.801-2.351-7.011-3.551-7.2l0.03,0.016L61.061,18.515z"/>
	<g>
		<path fill="#0574BB" d="M29.961,53.867c-26.3-20.151-19.666-29.572-18.618-30.998c7.36-9.942,20.171-9.836,23.021-9.84
			c2.853-0.002,17.297,0.077,24.325,10.45c2.16,3.22,1.784,6.338,1.35,9.496c1.98-4.47,1.915-8.438-0.452-11.623
			c-8.08-10.271-21.66-10.25-25.18-10.28c-3.55-0.03-16.65,0.17-24.566,10.44C1.65,31.843,19.02,46.992,29.96,53.872L29.961,53.867z
			"/>
		<path fill="#0574BB" d="M57.376,32.656c-0.361-9.93-10.385-15.43-22.66-15.399c-7.923,0.02-16.47,3.757-19.616,9.67
			c3.595-4.286,10.145-7.542,18.821-7.855c12.681-0.22,21.521,7.73,19.816,17.38c-0.229,1.29-0.5,2.13-0.76,2.95
			c-0.035,0.12-0.035,0.33-0.035-1.07c0-8.449-8.22-14.22-18.351-14.22c-6.319,0-14.02,3.68-17.39,8.79
			c3.21-3.64,10.39-7.48,16.6-7.29c10.95,0.33,16.9,6.84,16.33,15.64c-0.069,1.141-0.43,1.986-0.689,2.707
			c0.05-0.133,0.149-0.569,0.1-1.655c-0.28-6.351-7.27-11.601-15.14-11.601c-4.98,0-11.45,2.73-14.04,7.21
			c2.61-3.06,7.85-6.01,13.01-5.91c8.311,0.171,12.94,6.061,12.94,12.12c0,0.94-0.141,1.83-0.391,2.78
			c-0.58-7.3-6.67-10.515-11.6-10.57c-3.37,0-7.76,1.587-10.521,5.475c2.011-1.86,5.421-4.391,9.471-4.271
			c6.76,0.208,9.569,4.048,9.689,9.036c0,0,0.021,2.311-0.859,3.64c0.25-0.659,0.239-0.892,0.239-1.649
			c0-3.94-4.29-7.173-8.699-6.493c-2.98,0.44-5.011,2.18-5.73,3.811c1.101-1.631,3.53-2.961,6.51-2.83
			c3.29,0.13,6.07,2.52,6.2,5.939c0.16,1.67-0.68,5.55-5.89,6.34c6.6,0.061,16.46-10.223,19.569-13.6
			c3.631-3.963,3.12-9.021,3.12-9.021l-0.029-0.029L57.376,32.656z"/>
	</g>
	<circle fill="#FFFFFF" cx="34.684" cy="49.679" r="3.78"/>
	<path fill="#0574BB" d="M35.065,46.983c-0.116,0-0.23,0.01-0.342,0.027c1.248,0.22,2.192,1.27,2.192,2.569
		c0,0.58-0.2,1.11-0.533,1.561c0.598-0.42,0.986-1.11,0.986-1.88c0-1.271-1.04-2.29-2.31-2.29l0.006,0.01V46.983z"/>
	<path fill="#013A81" d="M81.276,20.642c-0.655,0.328-1.354,0.899-1.354,1.846v17.346c0,2.83,0.99,7.179,6.78,7.179
		c5.5,0,7.22-3.486,7.22-7.179l-0.16-17.346c0-0.945-0.409-1.518-1.06-1.846h4.31c-0.649,0.328-1.1,0.899-1.1,1.846l-0.12,17.18
		c0,6.73-4.34,9.23-9.47,9.23c-4.51,0-10.29-2.215-10.29-9.146V22.487c0-0.945-0.65-1.518-1.271-1.846h6.561h-0.03H81.276z
		 M115.731,34.828v12.141c0,0.899,0.452,1.189,1.064,1.56h-5.615c0.68-0.37,1.06-0.656,1.06-1.56v-10.66
		c0-2.255-0.74-4.757-4.35-4.757c-1.73,0-3.36,1.14-4.15,2.13v13.277c0,0.9,0.41,1.19,1.06,1.561H99.14
		c0.659-0.368,1.02-0.66,1.02-1.561v-15.21c0-1.277-0.66-1.479-1.36-1.729l4.921-0.9v2.91c0.899-0.99,3.279-2.91,5.899-2.91
		c3.07,0,6.07,2.053,6.07,5.692l0.02,0.017H115.731z M122.371,20.931c1.068,0,2.01,0.89,2.01,1.96c0,1.14-0.939,2.09-2.01,2.09
		c-1.104,0-2.05-0.95-2.05-2.09c0-1.07,0.944-1.971,2.05-1.971V20.931z M124.176,29.12v17.84c0,0.9,0.41,1.19,1.065,1.561h-5.698
		c0.614-0.37,1.065-0.66,1.065-1.561V31.75c0-1.279-0.78-1.439-1.438-1.64l5.011-0.99H124.176z M136.846,31.74
		c3.895,2.01,7.75,3.28,7.75,8.771c0,5.119-4.677,8.359-9.063,8.359c-3.566,0-6.107-1.434-7.627-2.295l-0.12-6.153
		c0.86,2.956,3.073,6.73,7.46,6.73c4.43,0,5.578-3.486,5.578-5.494c0-3.939-2.994-4.716-6.93-6.728
		c-3.98-1.971-5.988-4.061-5.988-7.429c0-4.92,4.593-7.26,8.488-7.26c1.52,0,3.938,0.28,5.863,1.561l0.205,5.409
		c-0.489-1.97-2.79-5.33-6.644-5.33c-3.49,0-4.561,2.58-4.561,4.341c0,2.58,1.641,3.569,5.57,5.489l0.018,0.015V31.74z
		 M163.061,29.11v16.11c0,1.229,0.37,2.13,1.642,2.335l-3.568,1.312c-0.981-0.573-1.476-1.023-1.476-2.87
		c-1.229,1.354-3.075,2.87-5.987,2.87c-2.42,0-6.22-1.6-6.22-7.71v-9.43c0-1.273-0.78-1.437-1.39-1.641l4.96-0.982v12.06
		c0,3.483,1.89,5.29,4.229,5.29c2.011,0,3.16-0.946,4.351-2.094v-12.62c0-1.271-0.78-1.435-1.431-1.64l4.92-0.982h-0.02
		L163.061,29.11z M171.846,57.851h-5.7c0.654-0.283,1.063-0.654,1.063-1.561V31.901c0-1.31-0.7-1.52-1.359-1.722l4.88-1.061v2.55
		c0.819-0.979,2.99-2.54,5.62-2.54c3.479,0,7.989,2.99,7.989,9.761c0,4.43-3.199,10.01-9.35,10.01c-1.85,0-3.08-0.37-4.23-0.94v8.37
		c0,0.9,0.45,1.271,1.07,1.561v-0.03L171.846,57.851z M174.921,31.364c-1.764,0-3.361,1.023-4.142,2.01v11.971
		c0.738,0.945,1.886,1.93,3.729,1.93c3.65,0,5.986-3.116,5.986-8.24C180.495,32.8,177.012,31.364,174.921,31.364L174.921,31.364z
		 M203.281,42.229c-0.123,3.359-3.28,6.643-7.665,6.643c-5.784,0-9.31-4.92-9.31-9.8c0-4.47,3.155-9.968,9.43-9.968
		c3.487,0,7.71,2.42,7.71,8.479h-13.285v1.15c0,4.14,2.213,7.75,6.561,7.75c2.869,0,5.782-2.34,6.56-4.27v0.01V42.229z
		 M195.246,30.581c-2.995,0-4.593,2.66-4.923,5.493h9.35c0-3.979-2.173-5.49-4.427-5.49v-0.005V30.581z M210.421,29.104v3.604
		c0.86-1.476,2.993-3.609,4.431-3.609c0.981,0,1.063,0.125,1.56,0.33v3.855c-0.618-0.78-1.354-1.27-2.423-1.27
		c-1.556,0-2.787,1.229-3.566,2.215v12.71c0,0.899,0.45,1.189,1.07,1.56h-5.7c0.66-0.37,1.07-0.653,1.07-1.56v-15.21
		c0-1.271-0.78-1.44-1.47-1.641l5.05-0.983L210.421,29.104z"/>
</g>
</svg>